<svg width="30" height="30" viewBox="0 0 30 30" fill="none">
<path d="M22.3886 6.28715L14.9973 13.6784L7.60608 6.28715C7.42831 6.12448 7.19463 6.03666 6.95372 6.042C6.71281 6.04734 6.48325 6.14542 6.31286 6.31581C6.14247 6.4862 6.04439 6.71576 6.03905 6.95667C6.03372 7.19758 6.12153 7.43126 6.28421 7.60903L13.6717 15.0003L6.28233 22.3897C6.19206 22.4757 6.11989 22.5789 6.07008 22.6932C6.02026 22.8076 5.9938 22.9307 5.99226 23.0554C5.99071 23.1801 6.01411 23.3038 6.06108 23.4193C6.10805 23.5349 6.17764 23.6398 6.26576 23.7281C6.35388 23.8163 6.45875 23.8861 6.5742 23.9332C6.68966 23.9803 6.81337 24.0039 6.93807 24.0025C7.06277 24.0012 7.18594 23.9749 7.30034 23.9252C7.41473 23.8756 7.51805 23.8036 7.60421 23.7134L14.9973 16.324L22.3886 23.7153C22.5664 23.878 22.8 23.9658 23.0409 23.9604C23.2819 23.9551 23.5114 23.857 23.6818 23.6866C23.8522 23.5162 23.9503 23.2867 23.9556 23.0458C23.961 22.8049 23.8731 22.5712 23.7105 22.3934L16.3192 15.0022L23.7105 7.60903C23.8007 7.523 23.8729 7.41978 23.9227 7.30546C23.9725 7.19113 23.999 7.068 24.0005 6.94331C24.0021 6.81861 23.9787 6.69486 23.9317 6.57934C23.8847 6.46381 23.8152 6.35884 23.727 6.2706C23.6389 6.18236 23.534 6.11262 23.4186 6.06549C23.3031 6.01836 23.1794 5.99478 23.0547 5.99615C22.93 5.99752 22.8069 6.0238 22.6925 6.07345C22.5781 6.12311 22.4747 6.19513 22.3886 6.28528V6.28715Z" fill="white"/>
</svg>
