<svg width="30" height="30" viewBox="0 0 30 30" fill="none">
<path fill-rule="evenodd" clip-rule="evenodd" d="M23.75 30H6.25C2.79875 30 0 27.2013 0 23.75V6.25C0 2.79875 2.79875 0 6.25 0H23.75C27.2025 0 30 2.79875 30 6.25V23.75C30 27.2013 27.2025 30 23.75 30ZM19.64 23.89L19.11 22.04L20.39 23.23L21.6 24.35L23.75 26.25V8.31C23.75 7.17 22.83 6.25 21.7 6.25H8.3C7.17 6.25 6.25 7.17 6.25 8.31V21.83C6.25 22.97 7.17 23.89 8.3 23.89H19.64ZM17.84 19.31C20.05 19.24 20.9 17.79 20.9 17.79C20.9 14.57 19.46 11.96 19.46 11.96C18.02 10.88 16.65 10.91 16.65 10.91L16.51 11.07C18.21 11.59 19 12.34 19 12.34C17.96 11.77 16.94 11.49 15.99 11.38C15.27 11.3 14.58 11.32 13.97 11.4L13.8 11.42C13.45 11.45 12.6 11.58 11.53 12.05L10.94 12.34C10.94 12.34 11.77 11.55 13.57 11.03L13.47 10.91C13.47 10.91 12.1 10.88 10.66 11.96C10.66 11.96 9.22 14.57 9.22 17.79C9.22 17.79 10.06 19.24 12.27 19.31L12.94 18.48C11.67 18.1 11.19 17.3 11.19 17.3L11.47 17.47L11.51 17.5L11.55 17.5225L11.5612 17.5275L11.6 17.55C11.85 17.69 12.1 17.8 12.33 17.89C12.74 18.05 13.23 18.21 13.8 18.32C14.55 18.46 15.43 18.51 16.39 18.33C16.86 18.25 17.34 18.11 17.84 17.9C18.19 17.77 18.58 17.58 18.99 17.31C18.99 17.31 18.49 18.13 17.18 18.5L17.84 19.31ZM13.19 14.64C12.62 14.64 12.17 15.14 12.17 15.75C12.17 16.36 12.63 16.86 13.19 16.86C13.76 16.86 14.21 16.36 14.21 15.75C14.22 15.14 13.76 14.64 13.19 14.64ZM16.84 14.64C16.27 14.64 15.82 15.14 15.82 15.75C15.82 16.36 16.28 16.86 16.84 16.86C17.41 16.86 17.86 16.36 17.86 15.75C17.86 15.14 17.41 14.64 16.84 14.64Z" fill="white"/>
</svg>
