<svg width="30" height="30" viewBox="0 0 30 30" fill="none">
<path fill-rule="evenodd" clip-rule="evenodd" d="M23.75 30H6.25C2.79875 30 0 27.2013 0 23.75V6.25C0 2.79875 2.79875 0 6.25 0H23.75C27.2025 0 30 2.79875 30 6.25V23.75C30 27.2013 27.2038 29.9988 23.75 30ZM24.9625 22.9387V22.6025L23.4037 21.0725C23.2662 20.9675 23.1975 20.795 23.2262 20.6238V9.37625C23.1975 9.205 23.2662 9.0325 23.4037 8.9275L25 7.3975V7.06125H19.4725L15.5325 16.89L11.05 7.06125H5.2525V7.3975L7.12 9.64625C7.3025 9.8125 7.39625 10.055 7.37125 10.3V19.14C7.42625 19.4587 7.325 19.785 7.10125 20.0175L5 22.565V22.9012H10.9575V22.565L8.85625 20.0175C8.63 19.785 8.52375 19.4613 8.56625 19.14V11.495L13.795 22.9012H14.4025L18.8937 11.495V20.5863C18.8937 20.8288 18.8938 20.8762 18.735 21.035L17.12 22.6025V22.9387H24.9625Z" fill="white"/>
</svg>
