<svg width="154" height="77" viewBox="0 0 154 77" fill="none"><mask id="path-1-inside-1_1303_1260" fill="white"><path fill-rule="evenodd" clip-rule="evenodd" d="M0 7.47599C0 3.34712 3.34711 0 7.47599 0H146.524C150.653 0 154 3.34711 154 7.47599V69.524C154 73.6529 150.653 77 146.524 77H7.47599C3.34711 77 0 73.6529 0 69.524V7.47599ZM73.8895 45.5605V39.7843H77.5585C81.8473 39.7843 84.6487 37.4539 84.6487 33.8345C84.6735 30.1902 81.8969 27.9095 77.5833 27.9095H69.8238V45.5605H73.8895ZM73.8895 31.0331H77.2362C79.2443 31.0331 80.5334 32.1239 80.5334 33.8345C80.5334 35.545 79.2691 36.6606 77.2362 36.6606H73.8895V31.0331ZM99.3055 45.5605V42.0402H91.2485V27.9095H87.1332V45.5605H99.3055ZM104.582 45.5605L105.673 42.4121H113.011L114.102 45.5605H118.267L112.342 27.9095H106.392L100.417 45.5605H104.582ZM109.243 31.4298H109.491L112.119 39.3876H106.565L109.243 31.4298ZM126.904 45.5605V39.4124L133.052 27.9095H128.713L124.97 35.7434H124.722L120.83 27.9095H116.541L122.788 39.4124V45.5605H126.904ZM47.6234 49.1645C50.6559 46.132 52.3595 42.0191 52.3595 37.7305C52.3595 33.442 50.6559 29.3291 47.6234 26.2966C44.591 23.2642 40.4781 21.5605 36.1895 21.5605C31.901 21.5605 27.7881 23.2642 24.7556 26.2966C21.7232 29.3291 20.0195 33.442 20.0195 37.7305C20.0195 42.0191 21.7232 46.132 24.7556 49.1645C27.7881 52.1969 31.901 53.9005 36.1895 53.9005C40.4781 53.9005 44.591 52.1969 47.6234 49.1645ZM33.2299 31.67C33.4149 31.6833 33.5927 31.7472 33.7438 31.8548L40.8182 36.9079C40.9492 37.0014 41.056 37.1248 41.1297 37.2679C41.2033 37.411 41.2418 37.5696 41.2418 37.7305C41.2418 37.8915 41.2033 38.0501 41.1297 38.1932C41.056 38.3363 40.9492 38.4597 40.8182 38.5532L33.7438 43.6063C33.5927 43.7139 33.4149 43.7778 33.2299 43.7911C33.0448 43.8043 32.8597 43.7664 32.6948 43.6815C32.5299 43.5965 32.3916 43.4678 32.2949 43.3094C32.1983 43.1511 32.1471 42.9692 32.147 42.7837V32.6774C32.1471 32.4919 32.1983 32.31 32.2949 32.1517C32.3916 31.9933 32.5299 31.8646 32.6948 31.7796C32.8597 31.6947 33.0448 31.6567 33.2299 31.67Z"></path></mask><path fill-rule="evenodd" clip-rule="evenodd" d="M0 7.47599C0 3.34712 3.34711 0 7.47599 0H146.524C150.653 0 154 3.34711 154 7.47599V69.524C154 73.6529 150.653 77 146.524 77H7.47599C3.34711 77 0 73.6529 0 69.524V7.47599ZM73.8895 45.5605V39.7843H77.5585C81.8473 39.7843 84.6487 37.4539 84.6487 33.8345C84.6735 30.1902 81.8969 27.9095 77.5833 27.9095H69.8238V45.5605H73.8895ZM73.8895 31.0331H77.2362C79.2443 31.0331 80.5334 32.1239 80.5334 33.8345C80.5334 35.545 79.2691 36.6606 77.2362 36.6606H73.8895V31.0331ZM99.3055 45.5605V42.0402H91.2485V27.9095H87.1332V45.5605H99.3055ZM104.582 45.5605L105.673 42.4121H113.011L114.102 45.5605H118.267L112.342 27.9095H106.392L100.417 45.5605H104.582ZM109.243 31.4298H109.491L112.119 39.3876H106.565L109.243 31.4298ZM126.904 45.5605V39.4124L133.052 27.9095H128.713L124.97 35.7434H124.722L120.83 27.9095H116.541L122.788 39.4124V45.5605H126.904ZM47.6234 49.1645C50.6559 46.132 52.3595 42.0191 52.3595 37.7305C52.3595 33.442 50.6559 29.3291 47.6234 26.2966C44.591 23.2642 40.4781 21.5605 36.1895 21.5605C31.901 21.5605 27.7881 23.2642 24.7556 26.2966C21.7232 29.3291 20.0195 33.442 20.0195 37.7305C20.0195 42.0191 21.7232 46.132 24.7556 49.1645C27.7881 52.1969 31.901 53.9005 36.1895 53.9005C40.4781 53.9005 44.591 52.1969 47.6234 49.1645ZM33.2299 31.67C33.4149 31.6833 33.5927 31.7472 33.7438 31.8548L40.8182 36.9079C40.9492 37.0014 41.056 37.1248 41.1297 37.2679C41.2033 37.411 41.2418 37.5696 41.2418 37.7305C41.2418 37.8915 41.2033 38.0501 41.1297 38.1932C41.056 38.3363 40.9492 38.4597 40.8182 38.5532L33.7438 43.6063C33.5927 43.7139 33.4149 43.7778 33.2299 43.7911C33.0448 43.8043 32.8597 43.7664 32.6948 43.6815C32.5299 43.5965 32.3916 43.4678 32.2949 43.3094C32.1983 43.1511 32.1471 42.9692 32.147 42.7837V32.6774C32.1471 32.4919 32.1983 32.31 32.2949 32.1517C32.3916 31.9933 32.5299 31.8646 32.6948 31.7796C32.8597 31.6947 33.0448 31.6567 33.2299 31.67Z" fill="white"></path><path d="M73.8895 39.7843V38.2443H72.3495V39.7843H73.8895ZM73.8895 45.5605V47.1005H75.4295V45.5605H73.8895ZM84.6487 33.8345L83.1087 33.824V33.8345H84.6487ZM69.8238 27.9095V26.3695H68.2838V27.9095H69.8238ZM69.8238 45.5605H68.2838V47.1005H69.8238V45.5605ZM73.8895 31.0331V29.4931H72.3495V31.0331H73.8895ZM73.8895 36.6606H72.3495V38.2006H73.8895V36.6606ZM99.3055 42.0402H100.846V40.5002H99.3055V42.0402ZM99.3055 45.5605V47.1005H100.846V45.5605H99.3055ZM91.2485 42.0402H89.7085V43.5802H91.2485V42.0402ZM91.2485 27.9095H92.7885V26.3695H91.2485V27.9095ZM87.1332 27.9095V26.3695H85.5932V27.9095H87.1332ZM87.1332 45.5605H85.5932V47.1005H87.1332V45.5605ZM105.673 42.4121V40.8721H104.577L104.218 41.908L105.673 42.4121ZM104.582 45.5605V47.1005H105.678L106.037 46.0647L104.582 45.5605ZM113.011 42.4121L114.466 41.908L114.107 40.8721H113.011V42.4121ZM114.102 45.5605L112.647 46.0647L113.006 47.1005H114.102V45.5605ZM118.267 45.5605V47.1005H120.408L119.727 45.0705L118.267 45.5605ZM112.342 27.9095L113.802 27.4194L113.449 26.3695H112.342V27.9095ZM106.392 27.9095V26.3695H105.287L104.933 27.4157L106.392 27.9095ZM100.417 45.5605L98.9585 45.0668L98.2701 47.1005H100.417V45.5605ZM109.491 31.4298L110.953 30.9469L110.604 29.8898H109.491V31.4298ZM109.243 31.4298V29.8898H108.136L107.783 30.9387L109.243 31.4298ZM112.119 39.3876V40.9276H114.249L113.581 38.9047L112.119 39.3876ZM106.565 39.3876L105.106 38.8965L104.422 40.9276H106.565V39.3876ZM126.904 39.4124L125.545 38.6865L125.364 39.0267V39.4124H126.904ZM126.904 45.5605V47.1005H128.444V45.5605H126.904ZM133.052 27.9095L134.41 28.6354L135.621 26.3695H133.052V27.9095ZM128.713 27.9095V26.3695H127.742L127.324 27.2455L128.713 27.9095ZM124.97 35.7434V37.2834H125.941L126.359 36.4073L124.97 35.7434ZM124.722 35.7434L123.343 36.4286L123.767 37.2834H124.722V35.7434ZM120.83 27.9095L122.209 27.2242L121.784 26.3695H120.83V27.9095ZM116.541 27.9095V26.3695H113.952L115.188 28.6444L116.541 27.9095ZM122.788 39.4124H124.328V39.0212L124.142 38.6774L122.788 39.4124ZM122.788 45.5605H121.248V47.1005H122.788V45.5605ZM33.7438 31.8548L34.6389 30.6016L34.637 30.6003L33.7438 31.8548ZM33.2299 31.67L33.3399 30.1339L33.3399 30.1339L33.2299 31.67ZM40.8182 36.9079L39.9231 38.161L39.9237 38.1615L40.8182 36.9079ZM40.8182 38.5532L39.9237 37.2996L39.9231 37.3L40.8182 38.5532ZM33.7438 43.6063L34.637 44.8608L34.6389 44.8595L33.7438 43.6063ZM32.6948 43.6815L33.4001 42.3125L33.4001 42.3125L32.6948 43.6815ZM32.2949 43.3094L33.6096 42.5073L33.6095 42.5073L32.2949 43.3094ZM32.147 42.7837H30.607L30.607 42.7846L32.147 42.7837ZM32.147 32.6774L30.607 32.6765V32.6774H32.147ZM32.2949 32.1517L33.6095 32.9538L33.6096 32.9538L32.2949 32.1517ZM32.6948 31.7796L31.9895 30.4106L31.9895 30.4106L32.6948 31.7796ZM7.47599 -1.54C2.4966 -1.54 -1.54 2.4966 -1.54 7.47599H1.54C1.54 4.19763 4.19763 1.54 7.47599 1.54V-1.54ZM146.524 -1.54H7.47599V1.54H146.524V-1.54ZM155.54 7.47599C155.54 2.4966 151.503 -1.54 146.524 -1.54V1.54C149.802 1.54 152.46 4.19763 152.46 7.47599H155.54ZM155.54 69.524V7.47599H152.46V69.524H155.54ZM146.524 78.54C151.503 78.54 155.54 74.5034 155.54 69.524H152.46C152.46 72.8024 149.802 75.46 146.524 75.46V78.54ZM7.47599 78.54H146.524V75.46H7.47599V78.54ZM-1.54 69.524C-1.54 74.5034 2.49659 78.54 7.47599 78.54V75.46C4.19763 75.46 1.54 72.8024 1.54 69.524H-1.54ZM-1.54 7.47599V69.524H1.54V7.47599H-1.54ZM72.3495 39.7843V45.5605H75.4295V39.7843H72.3495ZM77.5585 38.2443H73.8895V41.3243H77.5585V38.2443ZM83.1087 33.8345C83.1087 35.2146 82.5906 36.2598 81.7234 36.9858C80.8287 37.7347 79.4358 38.2443 77.5585 38.2443V41.3243C79.97 41.3243 82.1222 40.6687 83.7004 39.3476C85.3061 38.0035 86.1887 36.0738 86.1887 33.8345H83.1087ZM77.5833 29.4495C79.4832 29.4495 80.8735 29.9518 81.7567 30.6882C82.6081 31.398 83.1182 32.4287 83.1087 33.824L86.1887 33.845C86.204 31.596 85.3382 29.6642 83.7291 28.3226C82.1518 27.0075 79.9971 26.3695 77.5833 26.3695V29.4495ZM69.8238 29.4495H77.5833V26.3695H69.8238V29.4495ZM71.3638 45.5605V27.9095H68.2838V45.5605H71.3638ZM73.8895 44.0205H69.8238V47.1005H73.8895V44.0205ZM77.2362 29.4931H73.8895V32.5731H77.2362V29.4931ZM82.0734 33.8345C82.0734 32.563 81.5789 31.4198 80.6343 30.6182C79.7163 29.8391 78.5076 29.4931 77.2362 29.4931V32.5731C77.973 32.5731 78.4128 32.7725 78.6414 32.9665C78.8434 33.1379 78.9934 33.3954 78.9934 33.8345H82.0734ZM77.2362 38.2006C78.5244 38.2006 79.7379 37.8459 80.6541 37.0542C81.5935 36.2424 82.0734 35.0948 82.0734 33.8345H78.9934C78.9934 34.2847 78.8411 34.5502 78.6402 34.7238C78.416 34.9176 77.9809 35.1206 77.2362 35.1206V38.2006ZM73.8895 38.2006H77.2362V35.1206H73.8895V38.2006ZM72.3495 31.0331V36.6606H75.4295V31.0331H72.3495ZM97.7655 42.0402V45.5605H100.846V42.0402H97.7655ZM91.2485 43.5802H99.3055V40.5002H91.2485V43.5802ZM89.7085 27.9095V42.0402H92.7885V27.9095H89.7085ZM87.1332 29.4495H91.2485V26.3695H87.1332V29.4495ZM88.6732 45.5605V27.9095H85.5932V45.5605H88.6732ZM99.3055 44.0205H87.1332V47.1005H99.3055V44.0205ZM104.218 41.908L103.127 45.0564L106.037 46.0647L107.128 42.9163L104.218 41.908ZM113.011 40.8721H105.673V43.9521H113.011V40.8721ZM115.557 45.0564L114.466 41.908L111.556 42.9163L112.647 46.0647L115.557 45.0564ZM118.267 44.0205H114.102V47.1005H118.267V44.0205ZM110.882 28.3995L116.807 46.0506L119.727 45.0705L113.802 27.4194L110.882 28.3995ZM106.392 29.4495H112.342V26.3695H106.392V29.4495ZM101.876 46.0543L107.851 28.4032L104.933 27.4157L98.9585 45.0668L101.876 46.0543ZM104.582 44.0205H100.417V47.1005H104.582V44.0205ZM109.491 29.8898H109.243V32.9698H109.491V29.8898ZM113.581 38.9047L110.953 30.9469L108.028 31.9127L110.656 39.8705L113.581 38.9047ZM106.565 40.9276H112.119V37.8476H106.565V40.9276ZM107.783 30.9387L105.106 38.8965L108.025 39.8787L110.702 31.9208L107.783 30.9387ZM125.364 39.4124V45.5605H128.444V39.4124H125.364ZM131.693 27.1835L125.545 38.6865L128.262 40.1383L134.41 28.6354L131.693 27.1835ZM128.713 29.4495H133.052V26.3695H128.713V29.4495ZM126.359 36.4073L130.103 28.5734L127.324 27.2455L123.58 35.0794L126.359 36.4073ZM124.722 37.2834H124.97V34.2034H124.722V37.2834ZM119.451 28.5947L123.343 36.4286L126.101 35.0582L122.209 27.2242L119.451 28.5947ZM116.541 29.4495H120.83V26.3695H116.541V29.4495ZM124.142 38.6774L117.894 27.1745L115.188 28.6444L121.435 40.1474L124.142 38.6774ZM124.328 45.5605V39.4124H121.248V45.5605H124.328ZM126.904 44.0205H122.788V47.1005H126.904V44.0205ZM50.8195 37.7305C50.8195 41.6107 49.2782 45.3319 46.5345 48.0755L48.7124 50.2534C52.0337 46.9321 53.8995 42.4275 53.8995 37.7305H50.8195ZM46.5345 27.3856C49.2782 30.1292 50.8195 33.8504 50.8195 37.7305H53.8995C53.8995 33.0336 52.0337 28.529 48.7124 25.2077L46.5345 27.3856ZM36.1895 23.1005C40.0696 23.1005 43.7908 24.6419 46.5345 27.3856L48.7124 25.2077C45.3911 21.8864 40.8865 20.0205 36.1895 20.0205V23.1005ZM25.8446 27.3856C28.5882 24.6419 32.3094 23.1005 36.1895 23.1005V20.0205C31.4925 20.0205 26.9879 21.8864 23.6667 25.2077L25.8446 27.3856ZM21.5595 37.7305C21.5595 33.8504 23.1009 30.1292 25.8446 27.3856L23.6667 25.2077C20.3454 28.529 18.4795 33.0336 18.4795 37.7305H21.5595ZM25.8446 48.0755C23.1009 45.3319 21.5595 41.6107 21.5595 37.7305H18.4795C18.4795 42.4275 20.3454 46.9321 23.6667 50.2534L25.8446 48.0755ZM36.1895 52.3605C32.3094 52.3605 28.5882 50.8192 25.8446 48.0755L23.6667 50.2534C26.9879 53.5747 31.4925 55.4405 36.1895 55.4405V52.3605ZM46.5345 48.0755C43.7908 50.8192 40.0696 52.3605 36.1895 52.3605V55.4405C40.8865 55.4405 45.3911 53.5747 48.7124 50.2534L46.5345 48.0755ZM34.637 30.6003C34.2556 30.3287 33.8069 30.1674 33.3399 30.1339L33.1198 33.2061C33.0229 33.1991 32.9298 33.1656 32.8506 33.1093L34.637 30.6003ZM41.7133 35.6547L34.6389 30.6016L32.8487 33.1079L39.9231 38.161L41.7133 35.6547ZM42.4988 36.5629C42.3129 36.2018 42.0434 35.8903 41.7127 35.6543L39.9237 38.1615C39.855 38.1125 39.7991 38.0478 39.7605 37.9729L42.4988 36.5629ZM42.7818 37.7305C42.7818 37.3243 42.6848 36.924 42.4988 36.5629L39.7605 37.9729C39.7219 37.898 39.7018 37.8149 39.7018 37.7305H42.7818ZM42.4988 38.8982C42.6848 38.5371 42.7818 38.1368 42.7818 37.7305H39.7018C39.7018 37.6462 39.7219 37.5631 39.7605 37.4882L42.4988 38.8982ZM41.7127 39.8068C42.0434 39.5708 42.3129 39.2593 42.4988 38.8982L39.7605 37.4882C39.7991 37.4133 39.855 37.3486 39.9237 37.2996L41.7127 39.8068ZM34.6389 44.8595L41.7133 39.8063L39.9231 37.3L32.8487 42.3532L34.6389 44.8595ZM33.3399 45.3272C33.8069 45.2937 34.2556 45.1324 34.637 44.8608L32.8506 42.3518C32.9298 42.2955 33.0229 42.262 33.1198 42.255L33.3399 45.3272ZM31.9895 45.0504C32.4057 45.2649 32.8729 45.3606 33.3399 45.3272L33.1198 42.255C33.2168 42.2481 33.3137 42.268 33.4001 42.3125L31.9895 45.0504ZM30.9803 44.1115C31.2242 44.5112 31.5733 44.836 31.9895 45.0505L33.4001 42.3125C33.4865 42.357 33.5589 42.4244 33.6096 42.5073L30.9803 44.1115ZM30.607 42.7846C30.6073 43.2528 30.7365 43.7119 30.9803 44.1116L33.6095 42.5073C33.6602 42.5903 33.687 42.6856 33.687 42.7827L30.607 42.7846ZM30.607 32.6774V42.7837H33.687V32.6774H30.607ZM30.9803 31.3495C30.7365 31.7492 30.6073 32.2083 30.607 32.6765L33.687 32.6784C33.687 32.7755 33.6602 32.8708 33.6095 32.9538L30.9803 31.3495ZM31.9895 30.4106C31.5733 30.6251 31.2242 30.9499 30.9803 31.3496L33.6096 32.9538C33.5589 33.0367 33.4865 33.1041 33.4001 33.1486L31.9895 30.4106ZM33.3399 30.1339C32.8729 30.1005 32.4057 30.1962 31.9895 30.4106L33.4001 33.1486C33.3137 33.1931 33.2168 33.213 33.1198 33.2061L33.3399 30.1339Z" fill="white" mask="url(#path-1-inside-1_1303_1260)"></path></svg>